<mxfile host="app.diagrams.net" modified="2022-06-22T01:31:29.596Z" agent="5.0 (Macintosh; Intel Mac OS X 10_15_7) AppleWebKit/605.1.15 (KHTML, like Gecko) Version/15.2 Safari/605.1.15" etag="xlbN0TiBfH7JhyftkFCD" version="20.0.2" type="github">
  <diagram id="XyGg_j0GVr-NyZMT5KGe" name="Page-1">
    <mxGraphModel dx="1298" dy="707" grid="1" gridSize="10" guides="1" tooltips="1" connect="1" arrows="1" fold="1" page="1" pageScale="1" pageWidth="827" pageHeight="1169" math="0" shadow="0">
      <root>
        <mxCell id="0" />
        <mxCell id="1" parent="0" />
        <mxCell id="aNgA9NyUkNADLnlnGJvS-1" value="LOGO" style="rounded=1;whiteSpace=wrap;html=1;" vertex="1" parent="1">
          <mxGeometry x="40" y="40" width="160" height="80" as="geometry" />
        </mxCell>
        <mxCell id="aNgA9NyUkNADLnlnGJvS-2" value="" style="endArrow=none;html=1;rounded=0;" edge="1" parent="1">
          <mxGeometry width="50" height="50" relative="1" as="geometry">
            <mxPoint x="10" y="160" as="sourcePoint" />
            <mxPoint x="820" y="160" as="targetPoint" />
          </mxGeometry>
        </mxCell>
        <mxCell id="aNgA9NyUkNADLnlnGJvS-3" value="Quench" style="text;strokeColor=none;fillColor=none;html=1;fontSize=24;fontStyle=1;verticalAlign=middle;align=center;" vertex="1" parent="1">
          <mxGeometry x="350" y="60" width="100" height="40" as="geometry" />
        </mxCell>
        <mxCell id="aNgA9NyUkNADLnlnGJvS-4" value="SEARCH" style="rounded=1;whiteSpace=wrap;html=1;" vertex="1" parent="1">
          <mxGeometry x="640" y="60" width="160" height="40" as="geometry" />
        </mxCell>
        <mxCell id="aNgA9NyUkNADLnlnGJvS-5" value="WHAT INGREDIENTS DO YOU HAVE IN YOUR FRIDGE?" style="text;html=1;align=center;verticalAlign=middle;resizable=0;points=[];autosize=1;strokeColor=none;fillColor=none;" vertex="1" parent="1">
          <mxGeometry x="30" y="180" width="340" height="30" as="geometry" />
        </mxCell>
        <mxCell id="aNgA9NyUkNADLnlnGJvS-6" value="LIST OF INGREDIENTS" style="rounded=1;whiteSpace=wrap;html=1;" vertex="1" parent="1">
          <mxGeometry x="40" y="220" width="160" height="80" as="geometry" />
        </mxCell>
        <mxCell id="aNgA9NyUkNADLnlnGJvS-7" value="BUTTON" style="rounded=1;whiteSpace=wrap;html=1;" vertex="1" parent="1">
          <mxGeometry x="240" y="240" width="120" height="40" as="geometry" />
        </mxCell>
        <mxCell id="aNgA9NyUkNADLnlnGJvS-8" value="WHAT INGREDIENTS DO YOU HAVE IN YOUR FRIDGE?" style="text;html=1;align=center;verticalAlign=middle;resizable=0;points=[];autosize=1;strokeColor=none;fillColor=none;" vertex="1" parent="1">
          <mxGeometry x="430" y="180" width="340" height="30" as="geometry" />
        </mxCell>
        <mxCell id="aNgA9NyUkNADLnlnGJvS-9" value="LIST OF MEALS FETCHED BY API" style="rounded=1;whiteSpace=wrap;html=1;" vertex="1" parent="1">
          <mxGeometry x="440" y="220" width="360" height="220" as="geometry" />
        </mxCell>
        <mxCell id="aNgA9NyUkNADLnlnGJvS-10" value="IF YOU DO NOT WANT TO COOK, HERE ARE THE AVAILABLE RESTAURANTS NEARBY:" style="text;html=1;align=center;verticalAlign=middle;resizable=0;points=[];autosize=1;strokeColor=none;fillColor=none;" vertex="1" parent="1">
          <mxGeometry x="40" y="500" width="520" height="30" as="geometry" />
        </mxCell>
        <mxCell id="aNgA9NyUkNADLnlnGJvS-11" value="GOOGLE MAPS API" style="rounded=1;whiteSpace=wrap;html=1;" vertex="1" parent="1">
          <mxGeometry x="40" y="540" width="760" height="380" as="geometry" />
        </mxCell>
      </root>
    </mxGraphModel>
  </diagram>
</mxfile>
